<?xml version="1.0" encoding="UTF-8"?>
<svg xmlns="http://www.w3.org/2000/svg" version="1.1" width="300" height="300" viewBox="0 0 300 300"><rect x="0" y="0" width="300" height="300" fill="#ffffff"/><g transform="scale(10.345)"><g transform="translate(2,2)"><path fill-rule="evenodd" d="M8 0L8 1L11 1L11 3L10 3L10 2L9 2L9 3L10 3L10 5L9 5L9 6L8 6L8 8L9 8L9 9L10 9L10 10L9 10L9 11L8 11L8 9L7 9L7 8L6 8L6 9L5 9L5 8L3 8L3 10L1 10L1 11L3 11L3 13L5 13L5 12L6 12L6 13L8 13L8 15L7 15L7 14L4 14L4 16L2 16L2 17L4 17L4 16L6 16L6 17L7 17L7 16L8 16L8 15L9 15L9 17L8 17L8 18L10 18L10 19L9 19L9 20L8 20L8 22L9 22L9 23L8 23L8 25L9 25L9 24L11 24L11 25L12 25L12 24L11 24L11 23L12 23L12 22L11 22L11 21L13 21L13 20L14 20L14 21L15 21L15 22L16 22L16 21L17 21L17 22L18 22L18 23L17 23L17 24L16 24L16 23L15 23L15 25L17 25L17 24L18 24L18 25L19 25L19 21L21 21L21 22L20 22L20 23L21 23L21 24L20 24L20 25L21 25L21 24L24 24L24 25L25 25L25 21L24 21L24 20L25 20L25 18L24 18L24 20L23 20L23 22L22 22L22 19L23 19L23 17L25 17L25 14L23 14L23 13L25 13L25 10L24 10L24 9L25 9L25 8L24 8L24 9L19 9L19 8L18 8L18 9L17 9L17 8L16 8L16 7L17 7L17 6L16 6L16 7L15 7L15 4L14 4L14 3L17 3L17 2L15 2L15 1L16 1L16 0L13 0L13 1L12 1L12 0ZM12 2L12 3L13 3L13 2ZM13 4L13 5L12 5L12 6L11 6L11 5L10 5L10 6L9 6L9 7L10 7L10 9L12 9L12 13L11 13L11 14L10 14L10 15L12 15L12 14L13 14L13 16L14 16L14 15L15 15L15 18L14 18L14 17L12 17L12 16L11 16L11 17L10 17L10 18L13 18L13 19L10 19L10 21L9 21L9 22L10 22L10 23L11 23L11 22L10 22L10 21L11 21L11 20L13 20L13 19L14 19L14 20L16 20L16 16L18 16L18 15L20 15L20 16L21 16L21 15L22 15L22 13L23 13L23 12L24 12L24 10L22 10L22 11L23 11L23 12L22 12L22 13L21 13L21 11L20 11L20 10L19 10L19 9L18 9L18 10L17 10L17 9L15 9L15 10L14 10L14 8L13 8L13 7L14 7L14 6L13 6L13 5L14 5L14 4ZM16 4L16 5L17 5L17 4ZM10 6L10 7L11 7L11 8L12 8L12 7L13 7L13 6L12 6L12 7L11 7L11 6ZM0 8L0 9L2 9L2 8ZM4 9L4 10L3 10L3 11L4 11L4 12L5 12L5 11L4 11L4 10L5 10L5 9ZM6 9L6 10L7 10L7 9ZM10 10L10 11L9 11L9 12L11 12L11 10ZM13 10L13 11L14 11L14 13L13 13L13 14L14 14L14 13L15 13L15 12L16 12L16 14L15 14L15 15L16 15L16 14L18 14L18 13L19 13L19 10L18 10L18 11L17 11L17 10L15 10L15 11L14 11L14 10ZM6 11L6 12L7 12L7 11ZM0 12L0 17L1 17L1 15L3 15L3 14L1 14L1 12ZM20 13L20 14L21 14L21 13ZM6 15L6 16L7 16L7 15ZM23 15L23 16L24 16L24 15ZM17 17L17 20L20 20L20 17ZM18 18L18 19L19 19L19 18ZM21 18L21 19L22 19L22 18ZM13 22L13 23L14 23L14 22ZM13 24L13 25L14 25L14 24ZM0 0L0 7L7 7L7 0ZM1 1L1 6L6 6L6 1ZM2 2L2 5L5 5L5 2ZM18 0L18 7L25 7L25 0ZM19 1L19 6L24 6L24 1ZM20 2L20 5L23 5L23 2ZM0 18L0 25L7 25L7 18ZM1 19L1 24L6 24L6 19ZM2 20L2 23L5 23L5 20Z" fill="#000000"/></g></g></svg>
