<?xml version="1.0" encoding="UTF-8"?>
<svg xmlns="http://www.w3.org/2000/svg" version="1.1" width="300" height="300" viewBox="0 0 300 300"><rect x="0" y="0" width="300" height="300" fill="#ffffff"/><g transform="scale(10.345)"><g transform="translate(2,2)"><path fill-rule="evenodd" d="M9 0L9 1L8 1L8 2L9 2L9 3L8 3L8 4L10 4L10 7L11 7L11 8L6 8L6 9L9 9L9 11L8 11L8 10L6 10L6 11L8 11L8 12L5 12L5 11L4 11L4 10L3 10L3 11L2 11L2 10L1 10L1 9L5 9L5 8L0 8L0 10L1 10L1 11L0 11L0 12L1 12L1 13L0 13L0 17L1 17L1 14L2 14L2 16L3 16L3 17L5 17L5 16L4 16L4 14L5 14L5 15L7 15L7 14L9 14L9 15L10 15L10 16L9 16L9 17L8 17L8 19L9 19L9 20L8 20L8 25L9 25L9 24L10 24L10 25L11 25L11 24L12 24L12 25L13 25L13 23L14 23L14 25L15 25L15 23L16 23L16 24L17 24L17 23L18 23L18 25L20 25L20 24L19 24L19 23L18 23L18 22L19 22L19 21L20 21L20 22L21 22L21 23L23 23L23 22L24 22L24 24L22 24L22 25L25 25L25 21L24 21L24 20L25 20L25 18L24 18L24 17L25 17L25 14L23 14L23 12L24 12L24 13L25 13L25 10L24 10L24 8L23 8L23 12L21 12L21 11L22 11L22 10L20 10L20 8L19 8L19 10L20 10L20 11L19 11L19 12L17 12L17 11L18 11L18 10L17 10L17 9L18 9L18 8L15 8L15 6L16 6L16 7L17 7L17 5L15 5L15 6L14 6L14 5L13 5L13 3L12 3L12 2L13 2L13 1L11 1L11 2L10 2L10 0ZM14 0L14 1L15 1L15 2L14 2L14 4L17 4L17 3L16 3L16 1L17 1L17 0ZM10 3L10 4L11 4L11 7L12 7L12 8L11 8L11 9L10 9L10 11L11 11L11 12L10 12L10 13L9 13L9 14L10 14L10 15L11 15L11 16L12 16L12 18L11 18L11 17L9 17L9 19L10 19L10 18L11 18L11 19L12 19L12 20L11 20L11 21L12 21L12 22L10 22L10 20L9 20L9 23L10 23L10 24L11 24L11 23L13 23L13 20L16 20L16 19L14 19L14 18L16 18L16 16L17 16L17 14L18 14L18 13L17 13L17 12L16 12L16 11L17 11L17 10L16 10L16 11L15 11L15 10L14 10L14 9L12 9L12 8L14 8L14 6L13 6L13 7L12 7L12 4L11 4L11 3ZM8 5L8 7L9 7L9 5ZM21 8L21 9L22 9L22 8ZM11 9L11 10L12 10L12 12L11 12L11 13L10 13L10 14L13 14L13 15L12 15L12 16L13 16L13 15L16 15L16 14L17 14L17 13L15 13L15 11L14 11L14 10L12 10L12 9ZM1 11L1 12L2 12L2 13L3 13L3 12L4 12L4 13L5 13L5 14L7 14L7 13L5 13L5 12L4 12L4 11L3 11L3 12L2 12L2 11ZM13 11L13 12L12 12L12 13L13 13L13 14L14 14L14 11ZM19 12L19 13L20 13L20 15L21 15L21 16L23 16L23 17L21 17L21 20L24 20L24 19L23 19L23 17L24 17L24 15L23 15L23 14L21 14L21 12ZM18 15L18 16L19 16L19 15ZM6 16L6 17L7 17L7 16ZM14 16L14 17L15 17L15 16ZM17 17L17 20L20 20L20 17ZM12 18L12 19L13 19L13 18ZM18 18L18 19L19 19L19 18ZM14 21L14 23L15 23L15 21ZM21 21L21 22L22 22L22 21ZM16 22L16 23L17 23L17 22ZM0 0L0 7L7 7L7 0ZM1 1L1 6L6 6L6 1ZM2 2L2 5L5 5L5 2ZM18 0L18 7L25 7L25 0ZM19 1L19 6L24 6L24 1ZM20 2L20 5L23 5L23 2ZM0 18L0 25L7 25L7 18ZM1 19L1 24L6 24L6 19ZM2 20L2 23L5 23L5 20Z" fill="#000000"/></g></g></svg>
